<?xml version="1.0" encoding="UTF-8" standalone="no"?>
<!-- Created with Inkscape (http://www.inkscape.org/) -->

<svg
   xmlns:dc="http://purl.org/dc/elements/1.1/"
   xmlns:cc="http://creativecommons.org/ns#"
   xmlns:rdf="http://www.w3.org/1999/02/22-rdf-syntax-ns#"
   xmlns:svg="http://www.w3.org/2000/svg"
   xmlns="http://www.w3.org/2000/svg"
   xmlns:sodipodi="http://sodipodi.sourceforge.net/DTD/sodipodi-0.dtd"
   xmlns:inkscape="http://www.inkscape.org/namespaces/inkscape"
   width="71.877304mm"
   height="16.61236mm"
   viewBox="0 0 71.877304 16.61236"
   version="1.1"
   id="svg8"
   inkscape:version="0.92.3 (2405546, 2018-03-11)"
   sodipodi:docname="Vote-O-Mat_Logo.svg">
  <defs
     id="defs2" />
  <sodipodi:namedview
     id="base"
     pagecolor="#ffffff"
     bordercolor="#666666"
     borderopacity="1.0"
     inkscape:pageopacity="0.0"
     inkscape:pageshadow="2"
     inkscape:zoom="4"
     inkscape:cx="111.07478"
     inkscape:cy="24.846276"
     inkscape:document-units="mm"
     inkscape:current-layer="layer1"
     showgrid="false"
     inkscape:object-paths="true"
     inkscape:snap-bbox="true"
     inkscape:snap-intersection-paths="true"
     inkscape:snap-smooth-nodes="true"
     inkscape:window-width="2560"
     inkscape:window-height="1377"
     inkscape:window-x="-8"
     inkscape:window-y="-8"
     inkscape:window-maximized="1"
     fit-margin-top="0"
     fit-margin-left="0"
     fit-margin-right="0"
     fit-margin-bottom="0" />
  <metadata
     id="metadata5">
    <rdf:RDF>
      <cc:Work
         rdf:about="">
        <dc:format>image/svg+xml</dc:format>
        <dc:type
           rdf:resource="http://purl.org/dc/dcmitype/StillImage" />
        <dc:title></dc:title>
      </cc:Work>
    </rdf:RDF>
  </metadata>
  <g
     inkscape:label="Ebene 1"
     inkscape:groupmode="layer"
     id="layer1"
     transform="translate(-78.533946,-76.495877)">
    <path
       style="opacity:1;vector-effect:none;fill:#424242;fill-opacity:1;fill-rule:nonzero;stroke:none;stroke-width:1.7467562;stroke-linecap:round;stroke-linejoin:round;stroke-miterlimit:4;stroke-dasharray:none;stroke-dashoffset:0;stroke-opacity:1;paint-order:normal"
       d="m 78.533946,76.495877 5.082341,16.61236 h 66.794963 v -16.61236 z m 39.082244,4.140431 c 0.71521,0 1.33438,0.161592 1.85733,0.484589 0.52295,0.322997 0.92293,0.795783 1.19979,1.418708 0.28454,0.622922 0.42655,1.372891 0.42655,2.249599 0,0.869015 -0.14201,1.614987 -0.42655,2.237911 -0.28455,0.622923 -0.68852,1.099706 -1.21147,1.430393 -0.52295,0.330688 -1.13813,0.495886 -1.84565,0.495886 -0.71521,0 -1.33438,-0.16159 -1.85733,-0.484589 -0.52295,-0.322997 -0.92654,-0.795783 -1.21108,-1.418708 -0.28455,-0.622922 -0.42694,-1.372891 -0.42694,-2.249597 0,-0.861327 0.14239,-1.603304 0.42694,-2.226226 0.28454,-0.630615 0.68813,-1.111393 1.21108,-1.44208 0.53064,-0.330688 1.14981,-0.495886 1.85733,-0.495886 z m -32.121927,0.172956 h 1.638019 l 1.73034,6.621416 1.684377,-6.621416 h 1.556994 l -2.364513,7.971174 h -1.811365 z m 41.935247,0 h 1.96133 l 1.41871,5.583289 1.33808,-5.583289 h 1.98432 l 0.62287,7.971174 h -1.48804 l -0.20763,-3.33369 c -0.0692,-1.192015 -0.10401,-2.137978 -0.10401,-2.837806 v -0.415251 l -1.45337,5.721576 h -1.44208 l -1.5457,-5.733261 c 0.0154,0.507567 0.023,0.891955 0.023,1.15343 0,0.699828 -0.0228,1.418998 -0.069,2.157278 l -0.19633,3.287724 h -1.47636 z m -26.43074,0.346302 v 1.522326 h 1.41871 l -0.14998,1.061497 h -1.26873 v 3.183718 c 0,0.299927 0.05,0.515511 0.14997,0.646249 0.10767,0.130736 0.27287,0.195939 0.49589,0.195939 0.22302,0 0.46541,-0.07319 0.72688,-0.219312 l 0.51887,0.946195 c -0.21533,0.153808 -0.45733,0.269009 -0.72649,0.345913 -0.26148,0.0769 -0.53067,0.115303 -0.80752,0.115303 -0.59986,-0.0077 -1.05744,-0.176883 -1.372745,-0.507571 -0.307616,-0.338378 -0.461605,-0.834362 -0.461605,-1.488047 v -3.218387 h -0.957493 v -1.061497 h 0.957493 v -1.349371 z m 43.07815,0 v 1.522326 h 1.4191 l -0.14997,1.061497 h -1.26913 v 3.183718 c 0,0.299927 0.05,0.515511 0.14998,0.646249 0.10766,0.130736 0.27325,0.195939 0.49627,0.195939 0.22303,0 0.46502,-0.07319 0.7265,-0.219312 l 0.51925,0.946195 c -0.21533,0.153808 -0.45772,0.269009 -0.72688,0.345913 -0.26147,0.0769 -0.53066,0.115303 -0.80752,0.115303 -0.59985,-0.0077 -1.05743,-0.176883 -1.37274,-0.507571 -0.30762,-0.338378 -0.46122,-0.834362 -0.46122,-1.488047 v -3.218387 h -0.95749 v -1.061497 h 0.95749 v -1.349371 z m -26.46073,0.645859 c -0.61523,0 -1.08441,0.242387 -1.40741,0.726883 -0.323,0.476805 -0.4842,1.233986 -0.4842,2.272192 0,1.991817 0.63038,2.987779 1.89161,2.987779 0.61524,0 1.08042,-0.238393 1.39573,-0.715198 0.32299,-0.476807 0.48459,-1.237982 0.48459,-2.283877 0,-1.038207 -0.1616,-1.795777 -0.48459,-2.272584 -0.31531,-0.476805 -0.78049,-0.715195 -1.39573,-0.715195 z m -22.465989,0.70351 c 0.89978,0 1.59975,0.288389 2.099627,0.86517 0.507567,0.56909 0.761161,1.353463 0.761161,2.353217 0,0.638303 -0.115199,1.203873 -0.345911,1.696062 -0.230712,0.484495 -0.561497,0.861282 -0.992161,1.130445 -0.430663,0.269165 -0.94185,0.403565 -1.534012,0.403565 -0.899778,0 -1.603743,-0.284392 -2.11131,-0.853482 -0.507568,-0.576783 -0.761164,-1.369146 -0.761164,-2.37659 0,-0.638304 0.1152,-1.19949 0.345913,-1.683985 0.230712,-0.484496 0.561498,-0.861283 0.992159,-1.130448 0.438354,-0.269165 0.953536,-0.403954 1.545698,-0.403954 z m 10.686669,0 c 0.85363,0 1.5152,0.273186 1.98432,0.819204 0.46911,0.53833 0.70351,1.291905 0.70351,2.260896 0,0.0769 -0.0116,0.276895 -0.0347,0.599892 h -3.82958 c 0.0461,0.592162 0.19975,1.014951 0.46122,1.268735 0.26147,0.253784 0.60746,0.380972 1.03813,0.380972 0.26916,0 0.52314,-0.0424 0.76155,-0.126991 0.2384,-0.09229 0.492,-0.230682 0.76116,-0.41525 l 0.61158,0.842186 c -0.67676,0.54602 -1.43033,0.818815 -2.2609,0.818815 -0.93054,0 -1.64971,-0.284392 -2.15727,-0.853482 -0.49988,-0.569093 -0.74987,-1.345863 -0.74987,-2.330235 0,-0.622922 0.1076,-1.180503 0.32293,-1.672689 0.21533,-0.499877 0.52692,-0.888262 0.93451,-1.165115 0.40759,-0.284546 0.89198,-0.426938 1.45338,-0.426938 z m 32.49666,0 c 1.56116,0 2.34192,0.69997 2.34192,2.099625 v 2.560842 c 0,0.238403 0.0344,0.415199 0.10362,0.530554 0.0769,0.107666 0.1961,0.192458 0.3576,0.253981 l -0.31124,0.980475 c -0.34607,-0.03076 -0.63047,-0.115554 -0.85349,-0.253981 -0.21533,-0.138427 -0.38092,-0.349627 -0.49627,-0.634173 -0.20764,0.307618 -0.46923,0.538406 -0.78454,0.692215 -0.30761,0.146118 -0.6536,0.218921 -1.03812,0.218921 -0.60755,0 -1.08794,-0.172799 -1.44169,-0.518868 -0.35376,-0.346069 -0.53095,-0.800045 -0.53095,-1.361445 0,-0.661375 0.23839,-1.164961 0.7152,-1.511028 0.48449,-0.35376 1.17287,-0.530556 2.06495,-0.530556 h 0.76156 v -0.346302 c 0,-0.39221 -0.0924,-0.665007 -0.27697,-0.818815 -0.17688,-0.161499 -0.46527,-0.242294 -0.86517,-0.242294 -0.44604,0 -0.98442,0.107597 -1.61503,0.32293 l -0.34592,-1.003458 c 0.76136,-0.292236 1.49934,-0.438623 2.21454,-0.438623 z m -32.462,1.049812 c -0.36144,0 -0.64584,0.134791 -0.85348,0.403954 -0.19995,0.261474 -0.31915,0.684264 -0.3576,1.268735 h 2.39919 v -0.06934 c 0,-1.068969 -0.39599,-1.603352 -1.18811,-1.603352 z m -10.721329,0.06934 c -0.884396,0 -1.326386,0.699581 -1.326386,2.099236 0,0.722898 0.107598,1.257672 0.322929,1.60374 0.223023,0.338377 0.553809,0.507572 0.992161,0.507572 0.438354,0 0.765142,-0.17319 0.980475,-0.519259 0.223021,-0.346069 0.334615,-0.876846 0.334615,-1.592053 0,-0.71521 -0.111594,-1.24199 -0.334615,-1.580368 -0.215333,-0.346069 -0.538515,-0.518868 -0.969179,-0.518868 z m 14.410679,0.957491 h 3.48405 v 1.176414 h -3.48405 z m 12.63982,0 h 3.48366 v 1.176414 h -3.48366 z m 16.4098,1.31509 c -0.95361,0 -1.4304,0.353592 -1.4304,1.061109 0,0.292237 0.0732,0.51903 0.21931,0.680528 0.14612,0.161499 0.36132,0.242296 0.64586,0.242296 0.49988,0 0.89226,-0.24999 1.17681,-0.749867 v -1.234066 z"
       id="path898"
       inkscape:connector-curvature="0" />
  </g>
</svg>
