<?xml version="1.0" encoding="UTF-8" standalone="no"?>
<!-- Created with Inkscape (http://www.inkscape.org/) -->

<svg
   xmlns:dc="http://purl.org/dc/elements/1.1/"
   xmlns:cc="http://creativecommons.org/ns#"
   xmlns:rdf="http://www.w3.org/1999/02/22-rdf-syntax-ns#"
   xmlns:svg="http://www.w3.org/2000/svg"
   xmlns="http://www.w3.org/2000/svg"
   xmlns:sodipodi="http://sodipodi.sourceforge.net/DTD/sodipodi-0.dtd"
   xmlns:inkscape="http://www.inkscape.org/namespaces/inkscape"
   width="90"
   height="25"
   id="svg2"
   version="1.1"
   inkscape:version="0.48.3.1 r9886"
   inkscape:export-filename="/home/sven/Documents/Aptana Studio 3 Workspace/Mahlowat/img/mahlowat_logo.png"
   inkscape:export-xdpi="180"
   inkscape:export-ydpi="180"
   sodipodi:docname="Neues Dokument 1">
  <defs
     id="defs4" />
  <sodipodi:namedview
     id="base"
     pagecolor="#ffffff"
     bordercolor="#666666"
     borderopacity="1.0"
     inkscape:pageopacity="0.0"
     inkscape:pageshadow="2"
     inkscape:zoom="5.6"
     inkscape:cx="30.050143"
     inkscape:cy="29.164697"
     inkscape:document-units="px"
     inkscape:current-layer="layer1"
     showgrid="false"
     fit-margin-top="0"
     fit-margin-left="0"
     fit-margin-right="0"
     fit-margin-bottom="0"
     inkscape:window-width="1600"
     inkscape:window-height="826"
     inkscape:window-x="-2"
     inkscape:window-y="-3"
     inkscape:window-maximized="1" />
  <metadata
     id="metadata7">
    <rdf:RDF>
      <cc:Work
         rdf:about="">
        <dc:format>image/svg+xml</dc:format>
        <dc:type
           rdf:resource="http://purl.org/dc/dcmitype/StillImage" />
        <dc:title></dc:title>
      </cc:Work>
    </rdf:RDF>
  </metadata>
  <g
     inkscape:label="Ebene 1"
     inkscape:groupmode="layer"
     id="layer1"
     transform="translate(-51.085713,-461.17362)">
    <path
       style="color:#000000;fill:#424242;fill-opacity:1;fill-rule:evenodd;stroke:none;stroke-width:3;marker:none;visibility:visible;display:inline;overflow:visible;enable-background:accumulate"
       d="M 50 0 L 45.25 11.875 C 45.449591 11.509492 45.671784 11.157864 45.9375 10.875 C 46.35083 10.43501 46.810413 10.10168 47.34375 9.875 C 47.890412 9.64835 48.462495 9.53126 49.0625 9.53125 C 49.66249 9.53126 50.21666 9.64835 50.75 9.875 C 51.29666 10.10168 51.77416 10.43501 52.1875 10.875 C 52.60082 11.31501 52.94749 11.86001 53.1875 12.5 C 53.44082 13.12668 53.56249 13.84293 53.5625 14.65625 C 53.56249 15.45626 53.44082 16.17251 53.1875 16.8125 C 52.94749 17.43917 52.60082 17.96626 52.1875 18.40625 C 51.77416 18.83292 51.29666 19.17959 50.75 19.40625 C 50.21666 19.63292 49.66249 19.75 49.0625 19.75 C 48.462495 19.75 47.890412 19.63292 47.34375 19.40625 C 46.810413 19.17959 46.35083 18.83292 45.9375 18.40625 C 45.524164 17.96626 45.190831 17.43917 44.9375 16.8125 C 44.697499 16.17251 44.562499 15.45626 44.5625 14.65625 C 44.562499 14.146774 44.624575 13.686239 44.71875 13.25 L 42.625 18.40625 L 42.84375 19.59375 C 42.737079 19.64705 42.615413 19.6608 42.46875 19.6875 C 42.371268 19.705246 42.226568 19.712814 42.09375 19.71875 L 40 25 L 90 25 L 90 0 L 50 0 z M 42.09375 19.71875 L 42.625 18.40625 L 42.625 18.34375 C 42.531663 18.37045 42.45958 18.37501 42.40625 18.375 L 42.28125 18.375 C 42.161247 18.37501 42.03083 18.32542 41.9375 18.21875 C 41.84416 18.11209 41.812497 17.92292 41.8125 17.65625 L 41.8125 5.25 L 40.15625 5.25 L 40.15625 17.53125 C 40.156249 18.25126 40.295832 18.81417 40.5625 19.1875 C 40.829165 19.56084 41.279581 19.75 41.90625 19.75 C 41.982265 19.75 42.026732 19.721745 42.09375 19.71875 z M 44.71875 13.25 L 45.25 11.875 C 45.139116 12.07806 45.027975 12.271432 44.9375 12.5 C 44.847839 12.734118 44.774915 12.989833 44.71875 13.25 z M 29.28125 5.25 L 29.28125 19.5 L 30.90625 19.5 L 30.90625 12.46875 C 31.399579 11.97543 31.832079 11.5971 32.21875 11.34375 C 32.605411 11.09043 33.055828 10.96876 33.5625 10.96875 C 34.202493 10.96876 34.675409 11.18043 34.96875 11.59375 C 35.262075 11.99376 35.406242 12.64251 35.40625 13.5625 L 35.40625 19.5 L 37.0625 19.5 L 37.0625 13.34375 C 37.06249 12.09043 36.79249 11.14001 36.3125 10.5 C 35.845825 9.86001 35.120409 9.53126 34.09375 9.53125 C 33.413744 9.53126 32.819161 9.71126 32.3125 10.03125 C 31.805829 10.33793 31.310413 10.68501 30.84375 11.125 L 30.90625 9.125 L 30.90625 5.25 L 29.28125 5.25 z M 4.65625 6.375 L 4.65625 19.5 L 6.1875 19.5 L 6.1875 12.28125 C 6.1875 11.6946 6.17833 11.05043 6.125 10.34375 C 6.07166 9.6371 6.00875 8.99293 5.96875 8.40625 L 6.0625 8.40625 L 7.09375 11.3125 L 9.65625 18.1875 L 10.59375 18.1875 L 13.09375 11.3125 L 14.15625 8.40625 L 14.25 8.40625 C 14.196655 8.99293 14.14707 9.6371 14.09375 10.34375 C 14.05374 11.05043 14.031238 11.6946 14.03125 12.28125 L 14.03125 19.5 L 15.59375 19.5 L 15.59375 6.375 L 13.65625 6.375 L 11.125 13.40625 L 10.1875 16.09375 L 10.125 16.09375 L 9.15625 13.40625 L 6.625 6.375 L 4.65625 6.375 z M 81.03125 7.0625 L 82.40625 7.0625 L 82.40625 9.78125 L 85.03125 9.78125 L 85.03125 11.125 L 82.40625 11.125 L 82.40625 16.53125 C 82.40625 17.13126 82.53667 17.57292 82.75 17.90625 C 82.97666 18.22626 83.34625 18.40626 83.90625 18.40625 C 84.07958 18.40626 84.26875 18.3658 84.46875 18.3125 C 84.66875 18.2592 84.87125 18.19167 85.03125 18.125 L 85.34375 19.375 C 85.07708 19.4683 84.78875 19.55834 84.46875 19.625 C 84.16208 19.705 83.83791 19.75 83.53125 19.75 C 83.01125 19.75 82.57875 19.66 82.21875 19.5 C 81.87208 19.34 81.57042 19.12375 81.34375 18.84375 C 81.13042 18.56376 80.99958 18.21251 80.90625 17.8125 C 80.81295 17.41251 80.75 16.98001 80.75 16.5 L 80.75 11.125 L 79.3125 11.125 L 79.3125 9.875 L 80.84375 9.78125 L 81.03125 7.0625 z M 22.78125 9.53125 C 21.994578 9.53126 21.278329 9.68876 20.625 9.96875 C 19.971664 10.23543 19.422081 10.51918 18.96875 10.8125 L 19.625 11.9375 C 20.011664 11.67085 20.457497 11.4321 20.9375 11.21875 C 21.430829 11.00543 21.957912 10.90626 22.53125 10.90625 C 22.931244 10.90626 23.24666 10.97835 23.5 11.125 C 23.753327 11.25835 23.978326 11.4296 24.125 11.65625 C 24.284993 11.88293 24.38416 12.14418 24.4375 12.4375 C 24.50416 12.73084 24.531243 13.03709 24.53125 13.34375 C 22.451245 13.57043 20.928746 13.95793 19.96875 14.53125 C 19.022081 15.09126 18.562498 15.90209 18.5625 16.96875 C 18.562498 17.84876 18.810415 18.55126 19.34375 19.03125 C 19.890414 19.51125 20.57958 19.75 21.40625 19.75 C 22.006245 19.75 22.591661 19.61042 23.125 19.34375 C 23.67166 19.06375 24.158326 18.73042 24.625 18.34375 L 24.6875 18.34375 L 24.8125 19.5 L 26.1875 19.5 L 26.1875 13.53125 C 26.187491 12.31793 25.908324 11.34501 25.375 10.625 C 24.841659 9.89168 23.96791 9.53126 22.78125 9.53125 z M 74 9.53125 C 75.18666 9.53126 76.06041 9.89168 76.59375 10.625 C 77.12707 11.34501 77.37499 12.31793 77.375 13.53125 L 77.375 19.5 L 76.03125 19.5 L 75.875 18.34375 L 75.84375 18.34375 C 75.37707 18.73042 74.85916 19.06375 74.3125 19.34375 C 73.77916 19.61042 73.22499 19.75 72.625 19.75 C 71.79833 19.75 71.10916 19.51125 70.5625 19.03125 C 70.02916 18.55126 69.75 17.84876 69.75 16.96875 C 69.75 15.90209 70.24083 15.09126 71.1875 14.53125 C 72.14749 13.95793 73.66999 13.57043 75.75 13.34375 C 75.74999 13.03709 75.72295 12.73084 75.65625 12.4375 C 75.60295 12.14418 75.47249 11.88293 75.3125 11.65625 C 75.16582 11.4296 74.97207 11.25835 74.71875 11.125 C 74.46541 10.97835 74.14999 10.90626 73.75 10.90625 C 73.17666 10.90626 72.64958 11.00543 72.15625 11.21875 C 71.67624 11.4321 71.23041 11.67085 70.84375 11.9375 L 70.1875 10.8125 C 70.64083 10.51918 71.19041 10.23543 71.84375 9.96875 C 72.49708 9.68876 73.21333 9.53126 74 9.53125 z M 54.90625 9.78125 L 56.59375 9.78125 L 58.03125 15.40625 C 58.13791 15.87292 58.21916 16.31001 58.3125 16.75 C 58.4058 17.19001 58.50041 17.64042 58.59375 18.09375 L 58.6875 18.09375 C 58.79416 17.64042 58.89333 17.19001 59 16.75 C 59.10666 16.29667 59.22374 15.85959 59.34375 15.40625 L 60.84375 9.78125 L 62.4375 9.78125 L 63.96875 15.40625 C 64.08874 15.87292 64.20582 16.31001 64.3125 16.75 C 64.43249 17.19001 64.54957 17.64042 64.65625 18.09375 L 64.71875 18.09375 C 64.82541 17.64042 64.93791 17.19001 65.03125 16.75 C 65.12455 16.31001 65.20582 15.87292 65.3125 15.40625 L 66.75 9.78125 L 68.3125 9.78125 L 65.71875 19.5 L 63.71875 19.5 L 62.3125 14.28125 C 62.19249 13.81459 62.07541 13.35959 61.96875 12.90625 C 61.87545 12.45293 61.77624 11.9621 61.65625 11.46875 L 61.5625 11.46875 C 61.45583 11.9621 61.35666 12.43959 61.25 12.90625 C 61.14333 13.35959 61.00833 13.84584 60.875 14.3125 L 59.53125 19.5 L 57.59375 19.5 L 54.90625 9.78125 z M 49.0625 10.90625 C 48.649161 10.90626 48.284162 11.0009 47.9375 11.1875 C 47.590829 11.36085 47.284579 11.60418 47.03125 11.9375 C 46.791247 12.27085 46.60208 12.65834 46.46875 13.125 C 46.335414 13.57834 46.249997 14.09626 46.25 14.65625 C 46.249997 15.21626 46.33541 15.73417 46.46875 16.1875 C 46.60208 16.64084 46.791247 17.04167 47.03125 17.375 C 47.284579 17.69501 47.590829 17.93834 47.9375 18.125 C 48.284162 18.29834 48.649161 18.37501 49.0625 18.375 C 49.47583 18.37501 49.84083 18.2983 50.1875 18.125 C 50.53416 17.93834 50.85374 17.69501 51.09375 17.375 C 51.34708 17.04167 51.52291 16.64084 51.65625 16.1875 C 51.78957 15.73417 51.87499 15.21626 51.875 14.65625 C 51.87499 14.09626 51.78955 13.57834 51.65625 13.125 C 51.52291 12.65834 51.34708 12.27085 51.09375 11.9375 C 50.85374 11.60418 50.53416 11.36085 50.1875 11.1875 C 49.84083 11.00085 49.47583 10.90626 49.0625 10.90625 z M 24.53125 14.40625 L 24.53125 17.125 C 24.064576 17.55167 23.61416 17.86709 23.1875 18.09375 C 22.774161 18.30709 22.341661 18.40626 21.875 18.40625 C 21.394996 18.40626 20.989579 18.30251 20.65625 18.0625 C 20.336247 17.82251 20.187497 17.43501 20.1875 16.875 C 20.187497 16.56834 20.25958 16.28459 20.40625 16.03125 C 20.552913 15.76459 20.791663 15.51251 21.125 15.3125 C 21.471662 15.11251 21.908745 14.95918 22.46875 14.8125 C 23.028744 14.66584 23.71791 14.51293 24.53125 14.40625 z M 75.75 14.40625 C 74.93666 14.51293 74.24749 14.66584 73.6875 14.8125 C 73.12749 14.95918 72.65916 15.11251 72.3125 15.3125 C 71.97916 15.51251 71.74041 15.76459 71.59375 16.03125 C 71.44708 16.28459 71.37499 16.56834 71.375 16.875 C 71.37499 17.43501 71.55499 17.82251 71.875 18.0625 C 72.20833 18.30251 72.61374 18.40626 73.09375 18.40625 C 73.56041 18.40626 73.99291 18.30709 74.40625 18.09375 C 74.83291 17.86709 75.28332 17.55167 75.75 17.125 L 75.75 14.40625 z "
       id="rect2989"
       transform="translate(51.085713,461.17362)" />
    <g
       style="font-size:20px;font-style:normal;font-variant:normal;font-weight:bold;font-stretch:normal;line-height:125%;letter-spacing:0px;word-spacing:0px;fill:#ffff00;fill-opacity:1;stroke:none;font-family:Source Sans Pro;-inkscape-font-specification:Sans Bold"
       id="text3786" />
  </g>
</svg>
